<svg width="70" height="72" viewBox="0 0 70 72" fill="none" xmlns="http://www.w3.org/2000/svg">
<path d="M60.9766 5.625H54.6875V2.25C54.6875 1.00744 53.7082 0 52.5 0C51.2918 0 50.3125 1.00744 50.3125 2.25V5.625H19.6875V2.25C19.6875 1.00744 18.7082 0 17.5 0C16.2918 0 15.3125 1.00744 15.3125 2.25V5.625H9.02344C4.04783 5.625 0 9.78848 0 14.9062V62.7188C0 67.8365 4.04783 72 9.02344 72H60.9766C65.9522 72 70 67.8365 70 62.7188V14.9062C70 9.78848 65.9522 5.625 60.9766 5.625ZM9.02344 10.125H15.3125V12.375C15.3125 13.6176 16.2918 14.625 17.5 14.625C18.7082 14.625 19.6875 13.6176 19.6875 12.375V10.125H50.3125V12.375C50.3125 13.6176 51.2918 14.625 52.5 14.625C53.7082 14.625 54.6875 13.6176 54.6875 12.375V10.125H60.9766C63.5398 10.125 65.625 12.2698 65.625 14.9062V20.25H4.375V14.9062C4.375 12.2698 6.46023 10.125 9.02344 10.125ZM60.9766 67.5H9.02344C6.46023 67.5 4.375 65.3552 4.375 62.7188V24.75H65.625V62.7188C65.625 65.3552 63.5398 67.5 60.9766 67.5Z" fill="#686868"/>
</svg>
